<svg width="35" height="35" viewBox="0 0 35 35" fill="none" xmlns="http://www.w3.org/2000/svg">
<path d="M27.2268 27.2271L30.4643 25.6083V21.5542M20.7372 14.2625L17.4997 15.8813L20.7372 14.2625ZM17.4997 15.8813L14.2622 14.2625L17.4997 15.8813ZM17.4997 15.8813V19.9354V15.8813ZM30.4643 9.39167L27.2268 11.0104L30.4643 9.39167ZM30.4643 9.39167L27.2268 7.77292L30.4643 9.39167ZM30.4643 9.39167V13.4458V9.39167ZM20.7372 4.53542L17.4997 2.91667L14.2622 4.53542H20.7372ZM4.53516 9.39167L7.77266 7.77292L4.53516 9.39167ZM4.53516 9.39167L7.77266 11.0104L4.53516 9.39167ZM4.53516 9.39167V13.4458V9.39167ZM17.4997 32.0833L14.2622 30.4646L17.4997 32.0833ZM17.4997 32.0833L20.7372 30.4646L17.4997 32.0833ZM17.4997 32.0833V28.0292V32.0833ZM7.77266 27.2271L4.53516 25.6083V21.5542L7.77266 27.2271Z" stroke="#e71d36" stroke-width="2" stroke-linecap="round" stroke-linejoin="round"/>
</svg>
