
<svg width="354" height="56" viewBox="0 0 354 56" fill="none" xmlns="http://www.w3.org/2000/svg">
<g clip-path="url(#clip0_1_2498)">
<path d="M52.9144 46.8316L48.8333 55.5764H46.1839L62.3996 20.7061L77.7153 55.5764H75.1185L71.2497 46.8316H52.9127H52.9144ZM62.2944 26.5874L54.0268 44.4471H70.1899L62.2944 26.5874Z" fill="#000000"/>
<path d="M88.9415 55.5769C91.3786 55.5769 93.6402 55.126 95.7247 54.2259C97.8091 53.324 99.611 52.0256 101.131 50.3307C102.58 48.7059 103.692 46.8689 104.469 44.8195C105.247 42.7702 105.636 40.598 105.636 38.3012C105.636 36.0045 105.247 33.8323 104.469 31.7829C103.692 29.7336 102.58 27.9141 101.131 26.3244C99.611 24.6646 97.8091 23.3837 95.7247 22.4819C93.6402 21.5818 91.3786 21.1309 88.9415 21.1309H79.0316V55.5786H88.9415V55.5769ZM81.4161 23.568H88.9415C93.1805 23.568 96.6616 25.0348 99.3812 27.9667C100.618 29.309 101.562 30.8723 102.217 32.6567C102.869 34.4411 103.197 36.3221 103.197 38.3012C103.197 40.3155 102.871 42.214 102.217 43.9984C101.562 45.7828 100.618 47.3461 99.3812 48.6884C96.6967 51.6922 93.2156 53.1924 88.9415 53.1924H81.4161V23.568Z" fill="#000000"/>
<path d="M109.282 46.8316L105.201 55.5764H102.551L118.767 20.7061L134.083 55.5764H131.486L127.617 46.8316H109.28H109.282ZM118.662 26.5874L110.394 44.4471H126.557L118.662 26.5874Z" fill="#000000"/>
<path d="M155.748 55.5767L141.44 38.1941H145.679C148.293 38.1941 150.413 37.859 152.039 37.187C153.241 36.622 154.283 35.7658 155.166 34.6165C156.048 33.4691 156.491 32.2058 156.491 30.8267C156.491 29.5897 156.12 28.4159 155.378 27.3017C154.636 26.1893 153.576 25.2787 152.199 24.5734C150.822 23.8663 149.232 23.5136 147.43 23.5136H137.785V55.5767H135.401V21.1292H147.43C149.055 21.1292 150.574 21.3853 151.988 21.8977C153.401 22.41 154.638 23.1434 155.698 24.0979C156.722 25.0173 157.508 26.0595 158.056 27.2245C158.603 28.3913 158.877 29.5915 158.877 30.8284C158.877 32.7707 158.294 34.5113 157.128 36.0483C155.961 37.5853 154.583 38.6889 152.994 39.3609C151.899 39.8557 150.83 40.1645 149.788 40.2891C148.746 40.4119 147.642 40.4751 146.476 40.4751L158.929 55.5784H155.75L155.748 55.5767Z" fill="#000000"/>
<path d="M183.337 55.5769C185.775 55.5769 188.036 55.126 190.121 54.2259C192.205 53.324 194.007 52.0256 195.526 50.3307C196.976 48.7059 198.088 46.8689 198.865 44.8195C199.643 42.7702 200.032 40.598 200.032 38.3012C200.032 36.0045 199.643 33.8323 198.865 31.7829C198.088 29.7336 196.976 27.9141 195.526 26.3244C194.007 24.6646 192.205 23.3837 190.121 22.4819C188.036 21.5818 185.775 21.1309 183.337 21.1309H173.428V55.5786H183.337V55.5769ZM175.812 23.568H183.337C187.577 23.568 191.058 25.0348 193.777 27.9667C195.014 29.309 195.958 30.8723 196.613 32.6567C197.265 34.4411 197.593 36.3221 197.593 38.3012C197.593 40.3155 197.267 42.214 196.613 43.9984C195.958 45.7828 195.014 47.3461 193.777 48.6884C191.093 51.6922 187.612 53.1924 183.337 53.1924H175.812V23.568Z" fill="#000000"/>
<path d="M217.67 55.947C220.814 55.947 223.729 55.1609 226.415 53.5888C229.099 52.0167 231.221 49.8796 232.775 47.1758C234.33 44.4738 235.107 41.5313 235.107 38.352C235.107 35.1727 234.33 32.2303 232.775 29.5282C231.221 26.8262 229.101 24.6873 226.415 23.1152C223.73 21.5431 220.814 20.7571 217.67 20.7571C214.526 20.7571 211.611 21.5431 208.925 23.1152C206.241 24.6873 204.121 26.8244 202.565 29.5282C201.01 32.2303 200.233 35.1727 200.233 38.352C200.233 41.5313 201.01 44.4738 202.565 47.1758C204.119 49.8779 206.239 52.0167 208.925 53.5888C211.61 55.1609 214.526 55.947 217.67 55.947ZM217.67 23.1959C220.39 23.1959 222.899 23.8767 225.195 25.2365C227.492 26.5963 229.312 28.4334 230.654 30.7477C231.996 33.062 232.668 35.5973 232.668 38.352C232.668 41.1085 231.996 43.6421 230.654 45.9564C229.312 48.2707 227.492 50.1077 225.195 51.4675C222.899 52.8273 220.39 53.5081 217.67 53.5081C214.95 53.5081 212.441 52.8273 210.145 51.4675C207.848 50.1077 206.02 48.2707 204.66 45.9564C203.3 43.6421 202.619 41.1067 202.619 38.352C202.619 35.5956 203.3 33.062 204.66 30.7477C206.02 28.4334 207.848 26.5963 210.145 25.2365C212.441 23.8767 214.95 23.1959 217.67 23.1959Z" fill="#000000"/>
<path d="M266.032 37.4521C267.657 38.1592 269.045 39.2628 270.192 40.7647C271.34 42.2666 271.915 43.9703 271.915 45.8793C271.915 47.1163 271.642 48.3252 271.094 49.5096C270.547 50.6939 269.761 51.7449 268.736 52.6626C267.676 53.5802 266.431 54.2961 265.001 54.8084C263.569 55.3208 262.06 55.5769 260.47 55.5769H247.804L247.857 21.1292H257.714C260.928 21.1292 263.49 22.0293 265.399 23.8312C266.281 24.6436 266.962 25.5805 267.439 26.6403C267.917 27.7001 268.155 28.7949 268.155 29.9266C268.155 31.3391 267.829 32.6287 267.174 33.7955C266.522 34.9605 265.716 35.8624 264.764 36.4976L264.286 36.8151C264.958 37.0275 265.541 37.2398 266.036 37.4503L266.032 37.4521ZM250.239 36.1273H257.605C258.559 36.1273 259.354 36.0747 259.989 35.9677C260.625 35.8624 261.262 35.6852 261.897 35.4378C262.816 35.0483 263.69 34.378 264.52 33.4235C265.35 32.469 265.766 31.304 265.766 29.9266C265.766 28.8318 265.457 27.7983 264.837 26.8263C264.22 25.8542 263.3 25.0682 262.081 24.4681C260.861 23.8681 259.405 23.568 257.709 23.568H250.236V36.1273H250.239ZM260.467 53.1925C262.269 53.1925 263.858 52.8398 265.236 52.1327C266.613 51.4256 267.673 50.5167 268.415 49.4043C269.157 48.2919 269.527 47.1163 269.527 45.8793C269.527 44.502 269.094 43.2562 268.229 42.1438C267.364 41.0314 266.331 40.2103 265.129 39.6804C263.432 38.9382 261.295 38.568 258.716 38.568H250.236V53.1942H260.463L260.467 53.1925Z" fill="#000000"/>
<path d="M294.164 55.5767L279.856 38.1941H284.095C286.709 38.1941 288.829 37.859 290.455 37.187C291.657 36.622 292.699 35.7658 293.582 34.6165C294.464 33.4691 294.907 32.2058 294.907 30.8267C294.907 29.5897 294.536 28.4159 293.794 27.3017C293.052 26.1893 291.992 25.2787 290.615 24.5734C289.237 23.8663 287.648 23.5136 285.846 23.5136H276.201V55.5767H273.817V21.1292H285.846C287.471 21.1292 288.99 21.3853 290.404 21.8977C291.817 22.41 293.054 23.1434 294.113 24.0979C295.138 25.0173 295.924 26.0595 296.472 27.2245C297.019 28.3913 297.293 29.5915 297.293 30.8284C297.293 32.7707 296.71 34.5113 295.543 36.0483C294.377 37.5853 292.999 38.6889 291.41 39.3609C290.315 39.8557 289.246 40.1645 288.204 40.2891C287.162 40.4119 286.058 40.4751 284.891 40.4751L297.345 55.5784H294.166L294.164 55.5767Z" fill="#000000"/>
<path d="M304.434 46.8318L300.352 55.5766H297.703L313.919 20.7062L329.234 55.5766H326.638L322.769 46.8318H304.432H304.434ZM313.813 26.5875L305.546 44.4474H321.709L313.813 26.5875ZM310.847 17.5778H313.603L319.539 12.2246H315.193L310.847 17.5778Z" fill="#000000"/>
<path d="M348.357 38.8819C349.982 39.8013 351.245 40.9224 352.147 42.2472C353.047 43.5719 353.498 44.9948 353.498 46.5125C353.498 47.8197 353.181 49.0654 352.544 50.248C351.909 51.4324 350.989 52.4658 349.787 53.3483C347.313 55.1152 344.434 55.9978 341.15 55.9978C339.525 55.9978 337.97 55.7679 336.486 55.3082C335.002 54.8485 333.677 54.1958 332.512 53.3466C330.498 51.8622 329.278 50.0427 328.855 47.8881L331.135 46.616C331.24 48.5601 332.194 50.1498 333.996 51.385C334.916 52.0921 335.993 52.6307 337.23 53.0009C338.467 53.3712 339.774 53.5571 341.151 53.5571C343.978 53.5571 346.362 52.8325 348.307 51.385C350.179 50.0076 351.116 48.3811 351.116 46.509C351.116 45.4142 350.772 44.3895 350.082 43.435C349.393 42.4805 348.431 41.6681 347.194 40.9979C346.027 40.3978 343.943 39.9206 340.941 39.5662C340.693 39.5311 339.802 39.3889 338.265 39.1416C336.728 38.8942 335.412 38.5064 334.317 37.9765C332.586 37.1291 331.226 36.0061 330.236 34.6112C329.247 33.2164 328.752 31.7057 328.752 30.0809C328.752 28.7738 329.078 27.5456 329.733 26.3981C330.387 25.2488 331.314 24.2347 332.515 23.3504C333.682 22.5029 335.007 21.8485 336.49 21.3888C337.974 20.9291 339.528 20.6992 341.153 20.6992C344.439 20.6992 347.319 21.5818 349.791 23.3486C351.84 24.9032 353.042 26.7051 353.395 28.7545L351.116 30.0265C351.081 29.144 350.824 28.2948 350.347 27.4824C349.87 26.67 349.189 25.9279 348.307 25.2558C347.352 24.5488 346.257 24.0101 345.02 23.6399C343.783 23.2697 342.494 23.0837 341.151 23.0837C339.809 23.0837 338.511 23.2697 337.256 23.6399C336.002 24.0101 334.916 24.5488 333.996 25.2558C333.077 25.9279 332.372 26.6771 331.877 27.5087C331.382 28.3386 331.135 29.1966 331.135 30.0792C331.135 31.174 331.542 32.2601 332.354 33.3392C333.166 34.4165 334.173 35.2552 335.375 35.857C336.118 36.2097 336.939 36.4658 337.839 36.6255C338.739 36.7852 339.897 36.9518 341.309 37.1291C341.557 37.1641 342.174 37.2519 343.164 37.394C344.153 37.5361 345.108 37.7291 346.026 37.9765C346.945 38.2239 347.722 38.5239 348.357 38.8766V38.8819Z" fill="#000000"/>
<path fill-rule="evenodd" clip-rule="evenodd" d="M27.554 0.719826C22.0446 -0.720686 16.0001 -0.0258712 10.7732 3.07272C6.41128 5.65898 3.27057 9.51906 1.5423 13.8985L1.84584 14.0318C3.54604 9.71382 6.64113 5.90813 10.9416 3.35872C16.0808 0.312763 22.0218 -0.375033 27.4382 1.03214L27.5523 0.719826H27.554Z" fill="#000000"/>
<path fill-rule="evenodd" clip-rule="evenodd" d="M25.6747 5.84853C21.6146 4.87123 17.1984 5.42919 13.3734 7.69786C10.0345 9.67703 7.64648 12.651 6.36389 16.0163L6.66743 16.1497C7.92371 12.8458 10.2643 9.92618 13.5418 7.98386C17.2791 5.76782 21.5901 5.21864 25.5589 6.1626L25.6747 5.84853Z" fill="#000000"/>
<path fill-rule="evenodd" clip-rule="evenodd" d="M23.7921 10.9895C21.1848 10.4701 18.3985 10.8842 15.9737 12.3212C13.6577 13.6951 12.0241 15.7813 11.189 18.1359L11.4925 18.2693C12.3014 15.9778 13.8875 13.9442 16.1421 12.6072C18.4792 11.2229 21.162 10.8158 23.6745 11.3053L23.7903 10.9895H23.7921Z" fill="#000000"/>
<path fill-rule="evenodd" clip-rule="evenodd" d="M21.8726 16.232C19.0986 16.1074 16.8844 17.9708 16.2071 20.3394L16.5159 20.4745C17.1809 17.9918 19.4373 16.5162 21.7533 16.5636L21.8744 16.232H21.8726Z" fill="#000000"/>
<path fill-rule="evenodd" clip-rule="evenodd" d="M29.477 1.34082C34.7881 3.39368 39.2869 7.49063 41.7169 13.0597C43.7452 17.7075 44.0365 22.6748 42.8767 27.2384L42.5521 27.1682C43.6961 22.6713 43.4101 17.7742 41.4116 13.193C39.0237 7.71697 34.6056 3.68669 29.3875 1.66191L29.477 1.34082Z" fill="#000000"/>
<path fill-rule="evenodd" clip-rule="evenodd" d="M28.0031 6.60107C34.8618 9.40664 39.0184 16.425 38.1762 23.7661H37.8428C38.685 16.5758 34.6267 9.68913 27.9136 6.92392L28.0031 6.60283V6.60107Z" fill="#000000"/>
<path fill-rule="evenodd" clip-rule="evenodd" d="M26.5241 11.8735C30.8543 13.8457 33.4441 18.3602 32.9546 23.0835L32.6282 23.0186C33.0862 18.469 30.5964 14.1176 26.4346 12.1981L26.5258 11.8753L26.5241 11.8735Z" fill="#000000"/>
<path fill-rule="evenodd" clip-rule="evenodd" d="M25.0169 17.2498C26.6223 18.3007 27.4557 19.9658 27.5417 21.6573H27.2206C27.1258 20.0132 26.2521 18.5078 24.9203 17.5884L25.0151 17.2498H25.0169Z" fill="#000000"/>
<path d="M23.6767 20.7995C23.0625 19.7635 21.7246 19.4215 20.6885 20.0358C19.6523 20.6501 19.3103 21.9879 19.9245 23.024C20.5387 24.06 21.8766 24.4019 22.9127 23.7877C23.9489 23.1734 24.2909 21.8356 23.6767 20.7995Z" fill="#000000"/>
<path d="M12.0961 27.4929C10.8065 25.3173 10.3485 22.8802 10.6257 20.5483L10.9433 20.687C10.2117 27.3859 15.7895 33.1392 22.5692 32.5444L22.6201 32.8725C18.5337 33.2392 14.3683 31.3232 12.0978 27.4929H12.0961Z" fill="#000000"/>
<path d="M7.58509 30.3387C5.36029 26.5874 4.79356 22.3133 5.66208 18.3655L5.97264 18.5023C3.8303 28.4315 11.2697 37.8939 21.4848 38.0992L21.5006 38.4326C15.993 38.329 10.6363 35.4814 7.58684 30.3387H7.58509Z" fill="#000000"/>
<path d="M3.07404 33.1865C-0.0807029 27.8649 -0.729898 21.752 0.772024 16.218L1.07908 16.3531C-0.382491 21.7906 0.26144 27.7895 3.36003 33.0163C7.53945 40.0662 15.0262 43.8245 22.5938 43.614V43.9456C14.9122 44.1562 7.31661 40.3417 3.07404 33.1865Z" fill="#000000"/>
<path d="M16.7879 24.712C16.4492 24.14 16.2246 23.5469 16.1036 22.9539L16.4966 23.1276C17.1072 25.5366 19.2092 27.0561 21.4585 27.1333L21.4656 27.4614C19.6303 27.4105 17.8318 26.4718 16.7879 24.7137V24.712Z" fill="#000000"/>
<path d="M42.5749 55.4029L28.3049 38.0677H32.5335C35.1408 38.0677 37.2551 37.7326 38.8763 37.0641C40.0747 36.5008 41.1134 35.6464 41.9942 34.5006C42.875 33.3549 43.3154 32.0969 43.3154 30.7213C43.3154 29.4878 42.9452 28.3157 42.2065 27.2069C41.466 26.098 40.4098 25.1891 39.036 24.4855C37.6621 23.7802 36.076 23.4275 34.2793 23.4275H25.2678V21.05H34.2793C37.2954 21.05 40.2589 21.9712 42.5241 24.01C44.4488 25.7365 45.6946 28.1052 45.6946 30.723C45.6946 32.6601 45.1138 34.3953 43.9505 35.9288C42.7872 37.4623 41.4134 38.5625 39.8273 39.2327C38.7359 39.7257 37.6691 40.0346 36.6304 40.1574C35.5917 40.2802 34.4898 40.3416 33.3265 40.3416L45.7472 55.4046H42.5767L42.5749 55.4029Z" fill="#000000"/>
<path fill-rule="evenodd" clip-rule="evenodd" d="M21.8777 21.8237C22.5304 21.8237 23.0638 22.3571 23.0638 23.0098V55.3449H20.6917V23.0098C20.6917 22.3571 21.225 21.8237 21.8777 21.8237Z" fill="#000000"/>
<path fill-rule="evenodd" clip-rule="evenodd" d="M27.4223 0.703877C15.4789 -1.33495 7.34468 2.77078 1.52826 13.844L16.6246 20.4096C17.458 17.8216 19.181 16.546 21.9585 16.4407C23.9166 11.0173 25.4642 6.12554 27.4223 0.702122V0.703877Z" fill="url(#paint0_linear_1_2498)"/>
</g>
<defs>
<linearGradient id="paint0_linear_1_2498" x1="20.8023" y1="17.9304" x2="11.6977" y2="2.59361" gradientUnits="userSpaceOnUse">
<stop stop-color="#000000"/>
<stop offset="1" stop-color="#000000" stop-opacity="0"/>
</linearGradient>
<clipPath id="clip0_1_2498">
<rect width="353.497" height="56" fill="black"/>
</clipPath>
</defs>
</svg>